<svg xmlns="http://www.w3.org/2000/svg" viewBox="0 0 1004 1024"><defs><style>.a{opacity:0.6;}.b{fill:#3f3f3f;}.c{fill:#6b6b6b;}.d{fill:#fff;}</style></defs><title>closed-place-icon</title><g class="a"><circle class="b" cx="502" cy="533" r="491"/></g><path class="c" d="M512,984A482.13,482.13,0,0,1,324.39,57.87,482.13,482.13,0,0,1,699.61,946.13,479,479,0,0,1,512,984Z" transform="translate(-10)"/><path class="d" d="M512,40A462.13,462.13,0,0,1,691.82,927.71,462.13,462.13,0,0,1,332.18,76.29,459.07,459.07,0,0,1,512,40m0-40C234.75,0,10,224.75,10,502s224.75,502,502,502,502-224.75,502-502S789.25,0,512,0Z" transform="translate(-10)"/><path class="d" d="M526.11,265a26,26,0,0,0-52,0V407.39H430.46V218.16a26,26,0,1,0-52,0V407.39H334.8V265a26,26,0,0,0-52,0V433.38a26.17,26.17,0,0,0,.32,4.09,34.08,34.08,0,0,0,19.54,35.32l75.79,35.37v275.6a26,26,0,0,0,52,0V508.16l75.79-35.37a34.08,34.08,0,0,0,19.54-35.32,26.17,26.17,0,0,0,.32-4.09Z" transform="translate(-10)"/><path class="d" d="M711.2,202a34.16,34.16,0,0,0-55.07,10.38l-.88,1.93L586.33,469.08a33.41,33.41,0,0,0,13.83,39.59l61.46,37.83a34.16,34.16,0,0,0,8,6.72V785.94a26,26,0,0,0,52,0V222.66A25.81,25.81,0,0,0,711.2,202Z" transform="translate(-10)"/></svg>