<svg xmlns="http://www.w3.org/2000/svg" viewBox="0 0 856.93 1024"><defs><style>.a{fill:#474747;}.b{fill:#e6ecf3;}</style></defs><title>locate-icon</title><path class="a" d="M512,21.09c-236.38,0-428,191.62-428,428C84,754.66,448.34,1024,512,1024S940,754.66,940,449.09C940,212.71,748.38,21.09,512,21.09ZM512,653c-122.05,0-221-98.95-221-221s98.95-221,221-221,221,98.95,221,221S634.05,653,512,653Z" transform="translate(-83.54)"/><path class="b" d="M512,0C275.37,0,83.54,191.83,83.54,428.46,83.54,734.37,448.27,1004,512,1004S940.46,734.37,940.46,428.46C940.46,191.83,748.63,0,512,0Zm0,632c-122.05,0-221-98.95-221-221s98.95-221,221-221,221,98.95,221,221S634.05,632,512,632Z" transform="translate(-83.54)"/></svg>